<svg width="22" height="22" viewBox="0 0 22 22" fill="none" xmlns="http://www.w3.org/2000/svg">
<path d="M8.25 1.83333C8.75626 1.83333 9.16667 2.24374 9.16667 2.75V3.66667H12.8333V2.75C12.8333 2.24374 13.2437 1.83333 13.75 1.83333C14.2563 1.83333 14.6667 2.24374 14.6667 2.75V3.66667H17.4167C18.4292 3.66667 19.25 4.48748 19.25 5.5V17.4167C19.25 18.4292 18.4292 19.25 17.4167 19.25H4.58333C3.57081 19.25 2.75 18.4292 2.75 17.4167V5.5C2.75 4.48748 3.57081 3.66667 4.58333 3.66667H7.33333V2.75C7.33333 2.24374 7.74374 1.83333 8.25 1.83333ZM7.33333 5.5H4.58333V8.25H17.4167V5.5H14.6667V6.41667C14.6667 6.92293 14.2563 7.33333 13.75 7.33333C13.2437 7.33333 12.8333 6.92293 12.8333 6.41667V5.5H9.16667V6.41667C9.16667 6.92293 8.75626 7.33333 8.25 7.33333C7.74374 7.33333 7.33333 6.92293 7.33333 6.41667V5.5ZM17.4167 10.0833H4.58333V17.4167H17.4167V10.0833Z" fill="#1C1D22"/>
</svg>
