<svg width="24" height="25" viewBox="0 0 24 25" fill="none" xmlns="http://www.w3.org/2000/svg">
<path d="M3.3088 5.31027C3.527 4.35728 4.26618 3.61013 5.21677 3.3817V3.3817C6.06025 3.17901 6.93975 3.17901 7.78324 3.3817V3.3817C8.73383 3.61013 9.473 4.35728 9.69121 5.31027L9.70693 5.37896C9.89982 6.22135 9.89982 7.09643 9.70693 7.93882L9.69121 8.00751C9.473 8.9605 8.73383 9.70765 7.78324 9.93608V9.93608C6.93975 10.1388 6.06025 10.1388 5.21677 9.93608V9.93608C4.26618 9.70765 3.527 8.9605 3.3088 8.00751L3.29307 7.93883C3.10019 7.09643 3.10019 6.22134 3.29307 5.37895L3.3088 5.31027Z" stroke="white" stroke-width="1.5"/>
<path d="M3.3088 16.5792C3.527 15.6262 4.26618 14.879 5.21677 14.6506V14.6506C6.06025 14.4479 6.93975 14.4479 7.78324 14.6506V14.6506C8.73383 14.879 9.473 15.6262 9.69121 16.5792L9.70693 16.6478C9.89982 17.4902 9.89982 18.3653 9.70693 19.2077L9.69121 19.2764C9.473 20.2294 8.73383 20.9765 7.78324 21.205V21.205C6.93975 21.4077 6.06025 21.4077 5.21677 21.205V21.205C4.26618 20.9765 3.527 20.2294 3.3088 19.2764L3.29307 19.2077C3.10019 18.3653 3.10019 17.4902 3.29307 16.6478L3.3088 16.5792Z" stroke="white" stroke-width="1.5"/>
<path d="M14.3088 5.31027C14.527 4.35728 15.2662 3.61013 16.2168 3.3817V3.3817C17.0602 3.17901 17.9398 3.17901 18.7832 3.3817V3.3817C19.7338 3.61013 20.473 4.35728 20.6912 5.31027L20.7069 5.37896C20.8998 6.22135 20.8998 7.09643 20.7069 7.93882L20.6912 8.00751C20.473 8.9605 19.7338 9.70765 18.7832 9.93608V9.93608C17.9398 10.1388 17.0602 10.1388 16.2168 9.93608V9.93608C15.2662 9.70765 14.527 8.9605 14.3088 8.00751L14.2931 7.93883C14.1002 7.09643 14.1002 6.22134 14.2931 5.37895L14.3088 5.31027Z" stroke="white" stroke-width="1.5"/>
<path d="M14.3088 16.5792C14.527 15.6262 15.2662 14.879 16.2168 14.6506V14.6506C17.0602 14.4479 17.9398 14.4479 18.7832 14.6506V14.6506C19.7338 14.879 20.473 15.6262 20.6912 16.5792L20.7069 16.6478C20.8998 17.4902 20.8998 18.3653 20.7069 19.2077L20.6912 19.2764C20.473 20.2294 19.7338 20.9765 18.7832 21.205V21.205C17.9398 21.4077 17.0602 21.4077 16.2168 21.205V21.205C15.2662 20.9765 14.527 20.2294 14.3088 19.2764L14.2931 19.2077C14.1002 18.3653 14.1002 17.4902 14.2931 16.6478L14.3088 16.5792Z" stroke="white" stroke-width="1.5"/>
</svg>
