<svg width="69" height="69" viewBox="0 0 69 69" fill="none" xmlns="http://www.w3.org/2000/svg">
<path d="M23.2015 8.625V15.852M45.7985 8.625V15.852M11.0207 43.8394C9.74311 38.2654 9.74311 32.4645 11.0207 26.8905C12.7897 19.1724 18.6781 13.146 26.2196 11.3355C31.6659 10.0281 37.3341 10.0281 42.7804 11.3355C50.3219 13.146 56.2104 19.1724 57.9793 26.8905C59.2569 32.4645 59.2569 38.2654 57.9793 43.8394C56.2104 51.5576 50.3219 57.584 42.7804 59.3944C37.3341 60.7019 31.6659 60.7019 26.2196 59.3944C18.6781 57.584 12.7897 51.5576 11.0207 43.8394Z" stroke="#1C1D22" stroke-width="3" stroke-linecap="round"/>
<path d="M40.25 37.375H28.75M34.5 43.125L34.5 31.625" stroke="#1C1D22" stroke-width="3" stroke-linecap="round"/>
</svg>
