<svg width="24" height="25" viewBox="0 0 24 25" fill="none" xmlns="http://www.w3.org/2000/svg">
<path d="M7.31877 9.62908L8.35904 10.6948L10.4396 8.56338M13.0403 10.1619H16.6812M7.31877 14.9576L8.35904 16.0233L10.4396 13.8919M13.0403 15.4904H16.6812M3.35288 15.4175C2.88237 13.3626 2.88237 11.2241 3.35288 9.16922C4.00437 6.3239 6.17301 4.10226 8.95043 3.43484C10.9563 2.95283 13.0437 2.95283 15.0496 3.43484C17.827 4.10226 19.9956 6.32391 20.6471 9.16922C21.1176 11.2241 21.1176 13.3626 20.6471 15.4174C19.9956 18.2628 17.827 20.4844 15.0496 21.1518C13.0437 21.6338 10.9563 21.6338 8.95044 21.1518C6.17301 20.4844 4.00437 18.2628 3.35288 15.4175Z" stroke="white" stroke-width="1.5" stroke-linecap="round" stroke-linejoin="round"/>
</svg>
