<svg width="24" height="26" viewBox="0 0 24 26" fill="none" xmlns="http://www.w3.org/2000/svg">
<path d="M3 7.13062C2.58579 7.13062 2.25 7.46641 2.25 7.88062C2.25 8.29483 2.58579 8.63062 3 8.63062V7.13062ZM21 8.63062C21.4142 8.63062 21.75 8.29483 21.75 7.88062C21.75 7.46641 21.4142 7.13062 21 7.13062V8.63062ZM5 7.88062V7.13062H4.25V7.88062H5ZM19 7.88062H19.75V7.13062H19V7.88062ZM18.3418 17.9178L19.0637 18.1212L18.3418 17.9178ZM13.724 22.0413L13.8519 22.7803L13.724 22.0413ZM10.276 22.0413L10.4039 21.3022L10.4039 21.3022L10.276 22.0413ZM10.1183 22.0139L9.99033 22.753L9.99034 22.753L10.1183 22.0139ZM5.65815 17.9178L4.93626 18.1212L5.65815 17.9178ZM13.8817 22.0139L13.7538 21.2749L13.8817 22.0139ZM7.84254 6.29969L8.52618 6.60814L7.84254 6.29969ZM8.81802 4.95944L8.31082 4.40695L8.31081 4.40695L8.81802 4.95944ZM10.2779 4.06392L10.5445 4.76494L10.2779 4.06392ZM13.7221 4.06392L13.9887 3.36289V3.36289L13.7221 4.06392ZM16.1575 6.29969L16.8411 5.99124L16.1575 6.29969ZM3 8.63062H21V7.13062H3V8.63062ZM13.7538 21.2749L13.596 21.3022L13.8519 22.7803L14.0097 22.753L13.7538 21.2749ZM10.4039 21.3022L10.2462 21.2749L9.99034 22.753L10.1481 22.7803L10.4039 21.3022ZM18.25 7.88062V13.1496H19.75V7.88062H18.25ZM5.75 13.1496V7.88062H4.25V13.1496H5.75ZM18.25 13.1496C18.25 14.6945 18.0378 16.2315 17.6199 17.7144L19.0637 18.1212C19.519 16.5056 19.75 14.8317 19.75 13.1496H18.25ZM13.596 21.3022C12.5393 21.4852 11.4606 21.4852 10.4039 21.3022L10.1481 22.7803C11.3741 22.9925 12.6259 22.9925 13.8519 22.7803L13.596 21.3022ZM10.2462 21.2749C8.41651 20.9582 6.90667 19.5833 6.38004 17.7144L4.93626 18.1212C5.61368 20.5253 7.57038 22.334 9.99033 22.753L10.2462 21.2749ZM6.38004 17.7144C5.96218 16.2315 5.75 14.6945 5.75 13.1496H4.25C4.25 14.8317 4.481 16.5056 4.93626 18.1212L6.38004 17.7144ZM14.0097 22.753C16.4296 22.334 18.3863 20.5253 19.0637 18.1212L17.6199 17.7144C17.0933 19.5833 15.5835 20.9582 13.7538 21.2749L14.0097 22.753ZM8.25 7.88062C8.25 7.44594 8.34316 7.01376 8.52618 6.60814L7.15891 5.99124C6.88963 6.58804 6.75 7.23027 6.75 7.88062H8.25ZM8.52618 6.60814C8.70929 6.2023 8.97965 5.82918 9.32522 5.51193L8.31081 4.40695C7.82066 4.85693 7.42809 5.39464 7.15891 5.99124L8.52618 6.60814ZM9.32522 5.51193C9.67093 5.19456 10.0847 4.93977 10.5445 4.76494L10.0114 3.36289C9.37918 3.60328 8.80084 3.95709 8.31082 4.40695L9.32522 5.51193ZM10.5445 4.76494C11.0043 4.5901 11.4991 4.49945 12 4.49945V2.99945C11.319 2.99945 10.6435 3.12252 10.0114 3.36289L10.5445 4.76494ZM12 4.49945C12.5009 4.49945 12.9957 4.5901 13.4555 4.76494L13.9887 3.36289C13.3565 3.12252 12.681 2.99945 12 2.99945V4.49945ZM13.4555 4.76494C13.9153 4.93977 14.3291 5.19456 14.6748 5.51193L15.6892 4.40695C15.1992 3.9571 14.6208 3.60328 13.9887 3.36289L13.4555 4.76494ZM14.6748 5.51193C15.0204 5.82918 15.2907 6.20231 15.4738 6.60814L16.8411 5.99124C16.5719 5.39464 16.1793 4.85693 15.6892 4.40695L14.6748 5.51193ZM15.4738 6.60814C15.6568 7.01377 15.75 7.44594 15.75 7.88062H17.25C17.25 7.23027 17.1104 6.58805 16.8411 5.99124L15.4738 6.60814ZM5 8.63062H19V7.13062H5V8.63062Z" fill="#363853"/>
<path d="M10 12.9695V17.0672M14 12.9695V17.0672" stroke="#363853" stroke-width="1.5" stroke-linecap="round"/>
</svg>
